<svg width="348" height="379" viewBox="0 0 348 379" fill="none" xmlns="http://www.w3.org/2000/svg">
    <path
        d="M68.59 158.23C68.59 175.68 73.73 192.02 82.69 206.11L59.9 252.94L108.52 233.31C126.44 246.23 149.06 253.97 173.69 253.97V316.46C77.76 316.46 0 245.62 0 158.23C0 70.85 77.76 0 173.69 0V62.49C115.64 62.5 68.59 105.36 68.59 158.23Z"
        fill="#2e2751" />
    <path
        d="M173.68 62.49V124.98C231.72 124.98 278.77 167.84 278.77 220.72C278.77 238.17 273.62 254.51 264.67 268.59C288.97 296.89 313.28 325.2 337.58 353.5C304.67 334.27 271.75 315.03 238.84 295.8C220.93 308.72 198.3 316.46 173.67 316.46V378.95C269.59 378.95 347.35 308.11 347.35 220.72C347.35 133.33 269.6 62.49 173.68 62.49Z"
        fill="#2e2751" />
</svg>
    