<svg width="348" height="380" viewBox="0 0 348 380" fill="none" xmlns="http://www.w3.org/2000/svg">
    <path
        d="M69.2 159.2C69.2 176.65 74.34 192.99 83.3 207.08L60.51 253.91L109.13 234.28C127.05 247.2 149.67 254.94 174.3 254.94V317.43C78.37 317.43 0.610001 246.59 0.610001 159.2C0.610001 71.82 78.37 0.970001 174.3 0.970001V63.46C116.25 63.47 69.2 106.33 69.2 159.2Z"
        fill="white" />
    <path
        d="M174.29 63.46V125.95C232.33 125.95 279.38 168.81 279.38 221.69C279.38 239.14 274.23 255.48 265.28 269.56C289.58 297.86 313.89 326.17 338.19 354.47C305.28 335.24 272.36 316 239.45 296.77C221.54 309.69 198.91 317.43 174.28 317.43V379.92C270.2 379.92 347.96 309.08 347.96 221.69C347.96 134.3 270.21 63.46 174.29 63.46Z"
        fill="white" />
</svg>
    